<?xml version="1.0" encoding="UTF-8"?>
<svg xmlns="http://www.w3.org/2000/svg" width="300" height="385" viewBox="0 0 300 385" fill="none">
  <path d="M 134.00,275.50 L 132.50,271.00 L 133.50,192.00 L 208.00,144.50 L 210.50,142.00 L 210.50,138.00 L 206.00,133.50 L 176.00,115.50 L 126.00,81.50 L 120.00,80.50 L 116.50,85.00 L 116.50,266.00 L 114.00,266.50 L 69.00,237.50 L 60.00,231.50 L 54.50,225.00 L 49.50,212.00 L 48.50,63.00 L 50.50,48.00 L 54.50,40.00 L 62.00,31.50 L 108.00,2.50 L 119.00,-0.50 L 132.00,0.50 L 141.00,4.50 L 186.00,35.50 L 287.00,99.50 L 295.50,109.00 L 299.50,120.00 L 299.50,159.00 L 291.00,175.50 L 254.00,200.50 Z" fill="#107BB3"/>
  <path d="M 52.00,328.50 L 13.00,303.50 L 5.50,295.00 L 0.50,283.00 L 0.50,128.00 L 2.50,121.00 L 8.50,112.00 L 18.00,103.50 L 31.00,95.50 L 34.50,96.00 L 35.50,102.00 L 34.50,216.00 L 37.50,229.00 L 52.00,243.50 L 107.00,278.50 L 115.50,286.00 L 107.00,293.50 Z" fill="#ED8221"/>
  <path d="M 157.00,385.50 L 142.00,385.50 L 132.00,381.50 L 71.00,341.50 L 66.50,336.00 L 130.00,295.50 L 145.00,302.50 L 154.00,302.50 L 199.00,275.50 L 224.00,259.50 L 232.50,252.00 L 234.50,230.00 L 238.00,226.50 L 299.00,188.50 L 300.50,191.00 L 300.50,280.00 L 299.50,287.00 L 294.50,297.00 L 291.00,301.50 L 276.00,312.50 L 195.00,362.50 L 171.00,379.50 Z" fill="#ED8221"/>
</svg>
